<svg xmlns="http://www.w3.org/2000/svg" xmlns:xlink="http://www.w3.org/1999/xlink" width="74" height="66.151" viewBox="0 0 74 66.151"><defs><linearGradient id="a" x1="0.5" x2="0.5" y2="1" gradientUnits="objectBoundingBox"><stop offset="0" stop-color="#49ccf9"/><stop offset="1" stop-color="#8930fd"/></linearGradient></defs><path d="M58.366,0A15.815,15.815,0,0,1,73.65,13.214a16.605,16.605,0,0,1-9.327,18.36A15.161,15.161,0,0,1,45.4,25.529a17.064,17.064,0,0,1,1.936-20.72A15.14,15.14,0,0,1,58.366,0ZM2.183,6.9A2.294,2.294,0,0,1-.05,4.549,2.294,2.294,0,0,1,2.183,2.2h3.28a10.013,10.013,0,0,1,5.351,1.483c2.961,1.977,3.485,4.8,4.213,7.977h25.1a20.626,20.626,0,0,0-.542,4.645H16.316l5.032,19.934H57.024v-.114c.433.032.867.051,1.306.051a18.089,18.089,0,0,0,3.286-.3l-.776,3.282a2.205,2.205,0,0,1-2.149,1.787H22.534c.795,3.092,1.583,4.759,2.66,5.538,1.3.887,3.563.95,7.349.887H58.149a2.183,2.183,0,0,1,2.009,1.125,2.431,2.431,0,0,1,0,2.4,2.183,2.183,0,0,1-2.009,1.125H32.6c-4.689.057-7.572-.057-9.9-1.666s-3.611-4.524-4.857-9.7h0L10.267,10.468c0-.057,0-.057-.054-.12a4.141,4.141,0,0,0-1.7-2.674A5.5,5.5,0,0,0,5.4,6.9ZM36.619,21.208a1.552,1.552,0,0,1,3.076,0V30.18a1.552,1.552,0,0,1-3.076,0Zm-9.209,0a1.552,1.552,0,0,1,3.076,0V30.18a1.552,1.552,0,0,1-3.076,0ZM51.54,54.746a5.71,5.71,0,1,1-5.417,5.7A5.565,5.565,0,0,1,51.54,54.746Zm-23.806,0a5.71,5.71,0,0,1,0,11.405,5.71,5.71,0,0,1,0-11.405ZM66.305,14.884v3.048a1.292,1.292,0,0,1-1.246,1.312H61.051v4.2A1.286,1.286,0,0,1,59.8,24.756h-2.9a1.28,1.28,0,0,1-1.246-1.312v-4.2H51.655a1.286,1.286,0,0,1-1.246-1.312V14.884a1.28,1.28,0,0,1,1.246-1.312h4.009V9.352a1.28,1.28,0,0,1,1.246-1.312h2.9a1.286,1.286,0,0,1,1.246,1.312v4.22h4.009a1.286,1.286,0,0,1,1.246,1.312Z" transform="translate(0.05 0)" fill-rule="evenodd" fill="url(#a)"/></svg>