<svg xmlns="http://www.w3.org/2000/svg" width="135.314" height="140.4" viewBox="0 0 135.314 140.4"><g transform="translate(-388.343 -5591)"><g transform="translate(18.571 4911.651)"><path d="M23.411,24.935C22.982,24.311,0,2.314,0,2.314S3.657-.5,4.629.079,17.65,3.243,17.65,3.243L30.064,14.948,36.07,22.4l-4.359,1.636Z" transform="matrix(0.174, 0.985, -0.985, 0.174, 460.454, 759.017)" fill="#edfaff"/><path d="M105.274,1214.448c.429-.625,23.411-22.622,23.411-22.622s-3.657-2.817-4.629-2.234-13.021,3.163-13.021,3.163L98.622,1204.46l-6.005,7.453,4.359,1.636Z" transform="matrix(0.985, -0.174, 0.174, 0.985, 84.203, -419.826)" fill="#edfaff"/><path d="M577.873,150.507c1.95.226,2.561.766,2.752,2.666,1.914,19.035-3.414,35.8-16.2,50.007-5.278,5.869-11.1,11.249-16.632,16.889a3.669,3.669,0,0,0-.985,1.92q-1.372,10.006-2.6,20.031a5.538,5.538,0,0,1-1.637,3.479c-6.757,6.689-13.46,13.431-20.189,20.148a5.477,5.477,0,0,1-1.3,1.048c-1.466.746-3-.167-3.339-1.973-.816-4.331-1.8-8.642-2.343-13.007-.345-2.753-1.827-4.475-3.879-6.09-1.114,2.049-2.216,4.087-3.328,6.12-1.194,2.18-2.741,2.421-4.494.67q-12.518-12.5-25.02-25.018c-1.7-1.7-1.455-3.249.673-4.416,2.033-1.116,4.074-2.219,6.268-3.413-1.7-1.534-2.859-3.344-5.439-3.679-4.562-.591-9.063-1.638-13.6-2.462a2.5,2.5,0,0,1-2.267-1.683,2.593,2.593,0,0,1,.881-2.7c6.959-6.94,13.893-13.906,20.879-20.82a4.122,4.122,0,0,1,2.176-1.093c6.987-.971,13.987-1.84,20.977-2.794a3.282,3.282,0,0,0,1.732-.867c5.578-5.484,10.977-11.158,16.7-16.485a62.057,62.057,0,0,1,35.629-16.434q1.9-.231,3.794-.468S576.763,150.377,577.873,150.507ZM487,213.911l30.155,30.154c.059-.054.238-.212.406-.381q20.718-20.716,41.431-41.437a58.287,58.287,0,0,0,11.243-15.655c.992-2.03,1.836-4.133,2.762-6.234C561.042,177.374,553.743,170,550.8,158.237c-.4.151-.735.275-1.068.4a59.945,59.945,0,0,0-21.252,13.93q-20.314,20.355-40.668,40.669A9.408,9.408,0,0,1,487,213.911Zm87.25-38.174a2.774,2.774,0,0,0,.234-.474,62.641,62.641,0,0,0,1.754-19.44c-.058-.918-.558-.926-1.183-.9-4.279.157-8.566.205-12.832.531a60.248,60.248,0,0,0-6.775,1.264A23.037,23.037,0,0,0,574.247,175.737Zm-32.793,50.977-.366-.219a10.19,10.19,0,0,1-.8,1.037c-6.093,6.107-12.111,12.292-18.345,18.252-1.926,1.842-2.844,3.549-1.842,6.09a9.141,9.141,0,0,1,.3,1.652c.383,2.026.77,4.052,1.189,6.256.475-.445.8-.732,1.1-1.038,5.08-5.076,10.136-10.178,15.255-15.216a5.546,5.546,0,0,0,1.842-3.589C540.252,235.521,540.887,231.121,541.455,226.714Zm-70.019-17.23a6.071,6.071,0,0,0,.761.261c3.151.584,6.311,1.119,9.45,1.761a1.909,1.909,0,0,0,1.979-.639q10.009-10.072,20.066-20.1c.269-.269.509-.566.952-1.061-.816.082-1.359.122-1.9.192-4.094.527-8.192,1.025-12.276,1.621a3.915,3.915,0,0,0-2.063.98c-5.4,5.321-10.748,10.695-16.108,16.056C472.023,208.834,471.764,209.13,471.435,209.484Zm36.609,32.749L488.89,223.106l-4.805,2.61,21.354,21.326Z" transform="matrix(0.985, -0.174, 0.174, 0.985, -113.448, 632.439)" fill="#edfaff"/><g transform="matrix(0.985, -0.174, 0.174, 0.985, 378.85, 785.243)"><path d="M468.094,412.294c-2.194-.047-3.264-1.87-2.426-3.37a5.325,5.325,0,0,1,.909-1.109q9.43-9.449,18.871-18.889a2.889,2.889,0,0,1,2.493-1.184,2.269,2.269,0,0,1,1.643,3.458,5.524,5.524,0,0,1-.842,1.011q-9.431,9.448-18.888,18.871A9.9,9.9,0,0,1,468.094,412.294Z" transform="translate(-459.002 -381.335)" fill="#edfaff"/><path d="M451.563,413.163c-2-.022-3.113-1.778-2.4-3.259a3.69,3.69,0,0,1,.706-.961q4.237-4.264,8.5-8.506a2.142,2.142,0,0,1,2.583-.712,3.329,3.329,0,0,1,1.476,1.811,2.4,2.4,0,0,1-.589,1.933c-2.916,3.032-5.9,6-8.91,8.939A4.889,4.889,0,0,1,451.563,413.163Z" transform="translate(-448.949 -388.551)" fill="#edfaff"/><path d="M512.456,418.011a2.483,2.483,0,0,1-2.075-3.648,4.388,4.388,0,0,1,.676-.837c2.771-2.781,5.524-5.581,8.347-8.307a3.448,3.448,0,0,1,1.971-.941,2.207,2.207,0,0,1,1.988,3.294,4.734,4.734,0,0,1-.814,1.03c-2.711,2.727-5.417,5.461-8.17,8.146A11.781,11.781,0,0,1,512.456,418.011Z" transform="translate(-486.329 -391.461)" fill="#edfaff"/><path d="M503.01,373.543c.028,1.464-2.061,3.587-3.526,3.585a2.234,2.234,0,0,1-1.995-3.321,7.479,7.479,0,0,1,2.17-2.193A2.226,2.226,0,0,1,503.01,373.543Z" transform="translate(-478.449 -371.279)" fill="#edfaff"/><path d="M487.778,454.733c-.014,1.392-2.105,3.622-3.476,3.472a2.864,2.864,0,0,1-1.936-1.127,2.6,2.6,0,0,1-.05-2.211,6.3,6.3,0,0,1,2.069-2.113A2.235,2.235,0,0,1,487.778,454.733Z" transform="translate(-469.224 -420.905)" fill="#edfaff"/><path d="M499.937,444.237a2.245,2.245,0,0,1-2.245-2.3,2.311,2.311,0,0,1,2.272-2.294,2.351,2.351,0,0,1,2.327,2.379A2.3,2.3,0,0,1,499.937,444.237Z" transform="translate(-478.766 -413.1)" fill="#edfaff"/><path d="M486.843,391.879a2.339,2.339,0,0,1-2.354-2.226,2.3,2.3,0,1,1,4.593-.112A2.328,2.328,0,0,1,486.843,391.879Z" transform="translate(-470.687 -381.069)" fill="#edfaff"/></g><path d="M662.823,232.481a9.7,9.7,0,1,1-9.47-9.971A9.737,9.737,0,0,1,662.823,232.481Z" transform="matrix(0.985, -0.174, 0.174, 0.985, -229.098, 607.847)" fill="#edfaff"/></g></g></svg>