<svg xmlns="http://www.w3.org/2000/svg" xmlns:xlink="http://www.w3.org/1999/xlink" width="240.47" height="249.507" viewBox="0 0 240.47 249.507"><defs><linearGradient id="a" x1="0.5" x2="0.5" y2="1" gradientUnits="objectBoundingBox"><stop offset="0" stop-color="#6968f6"/><stop offset="1" stop-color="#1beef6"/></linearGradient></defs><g transform="translate(-556.099 -6106.578)"><g transform="matrix(0.985, -0.174, 0.174, 0.985, 545.728, 6144.448)"><path d="M41.605,44.313C40.842,43.2,0,4.112,0,4.112S6.5-.895,8.226.141,31.366,5.762,31.366,5.762l22.061,20.8L64.1,39.809l-7.746,2.907Z" transform="translate(150.91 131.918) rotate(90)" fill="url(#a)"/><path d="M22.495,44.313C23.258,43.2,64.1,4.112,64.1,4.112S57.6-.895,55.874.141,32.734,5.762,32.734,5.762l-22.061,20.8L0,39.809l7.746,2.907Z" transform="translate(20.799 66.597)" fill="url(#a)"/><path d="M201.992.756c3.465.4,4.551,1.361,4.89,4.738,3.4,33.827-6.067,63.614-28.781,88.869-9.379,10.429-19.721,19.991-29.558,30.015a6.521,6.521,0,0,0-1.751,3.412q-2.439,17.782-4.626,35.6a9.842,9.842,0,0,1-2.909,6.182c-12.008,11.887-23.92,23.869-35.879,35.805a9.733,9.733,0,0,1-2.313,1.863c-2.6,1.325-5.329-.3-5.934-3.507-1.45-7.7-3.191-15.357-4.164-23.115-.613-4.892-3.247-7.953-6.894-10.823-1.979,3.641-3.937,7.263-5.915,10.876-2.121,3.875-4.871,4.3-7.987,1.19Q47.927,159.645,25.709,137.4c-3.017-3.02-2.585-5.773,1.2-7.848,3.614-1.983,7.24-3.944,11.139-6.065-3.029-2.726-5.08-5.943-9.665-6.538-8.106-1.05-16.107-2.911-24.162-4.376-1.891-.344-3.45-1.045-4.028-2.991-.565-1.906.194-3.432,1.566-4.8,12.368-12.333,24.69-24.713,37.1-37a7.324,7.324,0,0,1,3.866-1.942C55.141,64.116,67.582,62.571,80,60.875a5.833,5.833,0,0,0,3.078-1.542c9.912-9.745,19.507-19.828,29.676-29.3C130.6,13.417,151.84,3.788,176.072.832Q179.443.421,182.814,0S200.018.526,201.992.756ZM40.494,113.433l53.589,53.588c.1-.1.423-.377.722-.676q36.819-36.815,73.628-73.639a103.584,103.584,0,0,0,19.98-27.82c1.763-3.608,3.263-7.344,4.909-11.079-21.242-5.3-34.213-18.4-39.44-39.312-.713.268-1.306.489-1.9.714a106.53,106.53,0,0,0-37.767,24.756q-36.1,36.173-72.271,72.274A16.72,16.72,0,0,1,40.494,113.433ZM195.548,45.594a4.929,4.929,0,0,0,.416-.843A111.321,111.321,0,0,0,199.08,10.2c-.1-1.631-.991-1.645-2.1-1.6-7.6.279-15.223.365-22.8.943-4.056.309-8.048,1.474-12.04,2.247C164.187,26.742,176.593,42.306,195.548,45.594Zm-58.276,90.592-.651-.389a18.108,18.108,0,0,1-1.429,1.842c-10.828,10.852-21.522,21.845-32.6,32.436-3.423,3.273-5.054,6.308-3.274,10.823a16.246,16.246,0,0,1,.538,2.936c.68,3.6,1.368,7.2,2.114,11.117.843-.791,1.419-1.3,1.962-1.844,9.028-9.022,18.013-18.088,27.11-27.04a9.855,9.855,0,0,0,3.273-6.377C135.134,151.838,136.263,144.018,137.271,136.186ZM12.839,105.567a10.788,10.788,0,0,0,1.353.463c5.6,1.037,11.216,1.989,16.794,3.129a3.392,3.392,0,0,0,3.517-1.136q17.787-17.9,35.66-35.714c.477-.478.905-1.005,1.692-1.885-1.45.145-2.414.217-3.373.341-7.276.936-14.558,1.821-21.816,2.88A6.958,6.958,0,0,0,43,75.386c-9.6,9.456-19.1,19.006-28.625,28.533C13.882,104.412,13.423,104.937,12.839,105.567Zm65.059,58.2-34.04-33.991-8.539,4.639,37.949,37.9Z" transform="translate(10.531 0)" fill="#433d6b"/><g transform="translate(0 152.635)"><path d="M4.817,43.674c-3.9-.083-5.8-3.324-4.311-5.989a9.463,9.463,0,0,1,1.616-1.971Q18.881,18.922,35.658,2.147c1.234-1.236,2.51-2.384,4.43-2.1a4.031,4.031,0,0,1,2.92,6.145,9.817,9.817,0,0,1-1.5,1.8Q24.75,24.773,7.944,41.519A17.6,17.6,0,0,1,4.817,43.674Z" transform="translate(11.34 11.344)" fill="url(#a)"/><path d="M4.645,24.255C1.1,24.216-.887,21.095.387,18.464a6.558,6.558,0,0,1,1.255-1.707q7.529-7.578,15.1-15.116c1.3-1.3,2.935-2.179,4.591-1.265a5.917,5.917,0,0,1,2.622,3.218A4.256,4.256,0,0,1,22.9,7.029C17.723,12.417,12.414,17.684,7.071,22.914A8.688,8.688,0,0,1,4.645,24.255Z" transform="translate(0 19.484)" fill="url(#a)"/><path d="M4.264,24.415C.886,24.007-1.029,20.638.576,17.932a7.8,7.8,0,0,1,1.2-1.488C6.7,11.5,11.594,6.527,16.612,1.681a6.128,6.128,0,0,1,3.5-1.672,3.922,3.922,0,0,1,3.534,5.854A8.413,8.413,0,0,1,22.2,7.694c-4.819,4.846-9.626,9.7-14.518,14.476A20.936,20.936,0,0,1,4.264,24.415Z" transform="translate(42.166 22.767)" fill="url(#a)"/><path d="M10.371,4.024c.05,2.6-3.663,6.375-6.267,6.37-3.042,0-5.166-3.34-3.545-5.9A13.292,13.292,0,0,1,4.416.594C6.959-1.069,10.311.979,10.371,4.024Z" transform="translate(33.278 0)" fill="url(#a)"/><path d="M10.1,4.136c-.024,2.473-3.741,6.437-6.176,6.17a5.089,5.089,0,0,1-3.441-2A4.629,4.629,0,0,1,.4,4.374,11.2,11.2,0,0,1,4.072.618,3.972,3.972,0,0,1,10.1,4.136Z" transform="translate(22.872 55.981)" fill="url(#a)"/><path d="M3.991,8.158A3.99,3.99,0,0,1,0,4.076,4.107,4.107,0,0,1,4.038,0,4.178,4.178,0,0,1,8.174,4.229,4.091,4.091,0,0,1,3.991,8.158Z" transform="translate(33.634 47.177)" fill="url(#a)"/><path d="M4.188,8.168A4.157,4.157,0,0,1,0,4.212,4.022,4.022,0,0,1,3.878.005,4.024,4.024,0,0,1,8.167,4.013,4.137,4.137,0,0,1,4.188,8.168Z" transform="translate(24.522 11.044)" fill="url(#a)"/></g><path d="M34.486,17.735c-.366,9.536-8.356,17.127-17.651,16.754C7.223,34.116-.34,26.208.012,16.914c.366-9.7,8.3-17.292,17.644-16.9A17.275,17.275,0,0,1,34.486,17.735Z" transform="translate(134.191 49.973)" stroke="#433d6b" stroke-width="3" fill="url(#a)"/></g></g></svg>