<svg xmlns="http://www.w3.org/2000/svg" xmlns:xlink="http://www.w3.org/1999/xlink" width="74.912" height="60.015" viewBox="0 0 74.912 60.015"><defs><linearGradient id="a" x1="0.5" x2="0.5" y2="1" gradientUnits="objectBoundingBox"><stop offset="0" stop-color="#49ccf9"/><stop offset="1" stop-color="#8930fd"/></linearGradient></defs><path d="M55.093,16.842H70.626a4.179,4.179,0,0,1,3.03,1.31,4.556,4.556,0,0,1,1.256,3.161V55.544a4.548,4.548,0,0,1-1.256,3.161,4.185,4.185,0,0,1-3.03,1.31H55.093a4.179,4.179,0,0,1-3.03-1.31,4.556,4.556,0,0,1-1.256-3.161V21.307a4.548,4.548,0,0,1,1.256-3.161,4.169,4.169,0,0,1,3.03-1.3ZM1.859,0H66.554a1.9,1.9,0,0,1,1.859,1.94V13.668h-3.95v-8.3a1.688,1.688,0,0,0-1.646-1.717H5.59A1.688,1.688,0,0,0,3.944,5.368v33.41A1.688,1.688,0,0,0,5.59,40.5H46.759v8.1H1.859A1.9,1.9,0,0,1,0,46.652V1.94A1.9,1.9,0,0,1,1.859,0Zm23.91,51.27H42.638a9.11,9.11,0,0,0,4.505,7.919H21.27c2.6-1.972,4.511-4.369,4.5-7.919Zm8.437-9.216a2.5,2.5,0,1,1-2.39,2.493,2.443,2.443,0,0,1,2.39-2.493ZM62.853,54.52a1.84,1.84,0,1,1-1.762,1.838,1.8,1.8,0,0,1,1.762-1.838Zm-10.242-1.4H73.1V23.768H52.611V53.121Z" fill-rule="evenodd" fill="url(#a)"/></svg>