<svg xmlns="http://www.w3.org/2000/svg" xmlns:xlink="http://www.w3.org/1999/xlink" width="70" height="68.906" viewBox="0 0 70 68.906"><defs><linearGradient id="a" x1="0.5" x2="0.5" y2="1" gradientUnits="objectBoundingBox"><stop offset="0" stop-color="#49ccf9"/><stop offset="1" stop-color="#8930fd"/></linearGradient></defs><path d="M34.138,0h.005a33.839,33.839,0,0,1,9.679,1.406q.736.219,1.484.481a33.842,33.842,0,0,1,7.116,3.466.339.339,0,0,1,.1.465.443.443,0,0,1-.034.045L50.048,9.024A.331.331,0,0,1,49.6,9.1l-.006,0q-.931-.58-1.921-1.1t-2.022-.96h0A29.172,29.172,0,0,0,34.138,4.684h0a29.172,29.172,0,0,0-11.48,2.34q-.865.369-1.695.788A29.587,29.587,0,0,0,13.281,13.4l0,0-.015.014A29.817,29.817,0,0,0,4.641,34.453v0h0A29.911,29.911,0,0,0,6.959,46.042q.366.874.781,1.71a29.841,29.841,0,0,0,5.541,7.75l0,0,.013.013a29.653,29.653,0,0,0,4.922,4,29.167,29.167,0,0,0,15.92,4.7h0v0a29.178,29.178,0,0,0,11.48-2.341q.866-.369,1.695-.788A29.577,29.577,0,0,0,55,55.5l0,0,.017-.017a29.817,29.817,0,0,0,8.62-21.029v-.006h0a30.068,30.068,0,0,0-.873-7.208q-.142-.577-.3-1.119a29.81,29.81,0,0,0-2.173-5.449.337.337,0,0,1,.1-.426l3.156-2.519a.329.329,0,0,1,.466.055.258.258,0,0,1,.026.04h0l0,0,0,.007h0q.565,1.033,1.063,2.113t.92,2.193a34.649,34.649,0,0,1,2.246,12.314v0h0a34.62,34.62,0,0,1-2.684,13.408q-.42,1-.9,1.979a34.547,34.547,0,0,1-6.409,8.971l0,0-.013.012a34.371,34.371,0,0,1-5.7,4.632,33.762,33.762,0,0,1-18.425,5.445h0A33.764,33.764,0,0,1,20.849,66.2q-.994-.423-1.962-.914A34.258,34.258,0,0,1,10,58.815l0,0L9.98,58.8A34.521,34.521,0,0,1,0,34.453v0H0A34.633,34.633,0,0,1,2.684,21.041q.42-1,.905-1.98A34.551,34.551,0,0,1,10,10.091l0,0,.015-.013a34.269,34.269,0,0,1,5.7-4.629A33.756,33.756,0,0,1,34.138,0ZM53.017,9.371,62.57.158l.636,6.213L70,7.228l-10.23,10-4.978.431L34.929,36.308,33.1,34.718,51.913,14.883l1.1-5.512ZM34.138,23.547h.009a10.75,10.75,0,0,1,1.87.163c.07.013.169.032.295.057h0a10.651,10.651,0,0,1,1.469.416.336.336,0,0,1,.15.522h0l-2.667,3.452a.331.331,0,0,1-.306.125h0l-.015,0h0l-.118-.014-.01,0-.1-.011H34.7c-.178-.016-.366-.024-.566-.024h0v0a6.1,6.1,0,0,0-2.4.49c-.122.052-.24.108-.354.164a6.179,6.179,0,0,0-1.6,1.169l0,0-.015.014a6.233,6.233,0,0,0-1.788,4.383v0h0a6.248,6.248,0,0,0,.486,2.42c.052.124.107.243.163.357a6.224,6.224,0,0,0,1.158,1.618l0,0,.014.014a6.109,6.109,0,0,0,.479.432,6.2,6.2,0,0,0,.539.393,6.1,6.1,0,0,0,3.325.981h0a6.081,6.081,0,0,0,2.4-.49c.122-.052.24-.108.354-.164a6.173,6.173,0,0,0,1.6-1.169l0,0,.011-.011c.083-.085.164-.17.239-.255s.153-.179.232-.282a6.217,6.217,0,0,0,.923-1.645.33.33,0,0,1,.129-.163l4.309-3.439a.33.33,0,0,1,.467.055.338.338,0,0,1,.069.171h0l0,.026v.018l.014.144v0h0l.013.156v0c.02.276.031.55.031.823v0h0a10.966,10.966,0,0,1-.849,4.242c-.088.21-.184.419-.287.627a10.938,10.938,0,0,1-2.028,2.839l0,0-.018.016a10.711,10.711,0,0,1-1.789,1.453,10.686,10.686,0,0,1-5.83,1.723h0v0a10.69,10.69,0,0,1-4.2-.857c-.208-.089-.416-.186-.621-.289A10.855,10.855,0,0,1,26.5,42.163l0,0-.019-.021a10.921,10.921,0,0,1-3.144-7.687v0h0a10.971,10.971,0,0,1,.849-4.241q.132-.315.287-.627A10.938,10.938,0,0,1,26.5,26.743h0l0,0a11.007,11.007,0,0,1,.865-.782,10.853,10.853,0,0,1,.943-.686,10.691,10.691,0,0,1,5.831-1.724Zm.566,4.709a.336.336,0,0,1-.292-.355l.292.355Zm-.566-16.579h.006a22.407,22.407,0,0,1,5.832.769q.454.122.9.264a22.29,22.29,0,0,1,4.364,1.91.338.338,0,0,1,.125.458.392.392,0,0,1-.027.041l0,0-2.475,3.2a.332.332,0,0,1-.429.085l-.008,0c-.335-.176-.684-.347-1.047-.508s-.732-.312-1.1-.448a17.733,17.733,0,0,0-6.142-1.089h0a17.733,17.733,0,0,0-6.977,1.423q-.508.217-1.03.48l-.026.012a18.007,18.007,0,0,0-4.64,3.385l0,0-.013.013a18.131,18.131,0,0,0-5.233,12.778v0h0a18.18,18.18,0,0,0,1.41,7.041q.222.531.475,1.039a18.139,18.139,0,0,0,3.367,4.709l0,0a17.821,17.821,0,0,0,12.674,5.3h0a17.735,17.735,0,0,0,6.977-1.422q.526-.225,1.03-.479a17.97,17.97,0,0,0,4.666-3.4l0,0A18.035,18.035,0,0,0,48.106,45.8a18.138,18.138,0,0,0,3.961-11.345h0v-.009h0a18.326,18.326,0,0,0-.294-3.272c-.029-.159-.063-.332-.1-.517a18.072,18.072,0,0,0-.742-2.562.338.338,0,0,1,.124-.395l3.226-2.574a.329.329,0,0,1,.466.055.347.347,0,0,1,.042.069h0l0,.006,0,0h0q.252.577.484,1.2t.418,1.232a22.961,22.961,0,0,1,1.013,6.763v0h0a22.877,22.877,0,0,1-1.773,8.862q-.277.661-.6,1.309a22.811,22.811,0,0,1-4.237,5.93l0,0-.013.012a22.917,22.917,0,0,1-1.792,1.624,22.42,22.42,0,0,1-14.151,5.033h0a22.327,22.327,0,0,1-8.782-1.79q-.655-.28-1.3-.6a22.651,22.651,0,0,1-5.876-4.276l0,0-.016-.017a22.819,22.819,0,0,1-6.592-16.086v0h0a22.893,22.893,0,0,1,1.774-8.863q.277-.661.6-1.309a22.839,22.839,0,0,1,4.236-5.929h0l0,0,.015-.014a22.666,22.666,0,0,1,3.761-3.055,22.33,22.33,0,0,1,12.182-3.6Z" fill="url(#a)"/></svg>