<svg xmlns="http://www.w3.org/2000/svg" width="80" height="80" viewBox="0 0 80 80"><g transform="translate(-714 -5662)"><g transform="translate(187 -1373)"><path d="M21.5,12.711A11.022,11.022,0,1,0,32.522,23.733,11,11,0,0,0,21.5,12.711Zm0,18.188a7.166,7.166,0,1,1,7.166-7.166A7.179,7.179,0,0,1,21.5,30.9ZM35.543,12.26a2.571,2.571,0,1,1-2.571-2.571A2.565,2.565,0,0,1,35.543,12.26Zm7.3,2.609c-.163-3.444-.95-6.494-3.473-9.008s-5.564-3.3-9.008-3.473c-3.549-.2-14.188-.2-17.737,0-3.434.163-6.485.95-9.008,3.463S.318,11.416.146,14.86c-.2,3.549-.2,14.188,0,17.737.163,3.444.95,6.494,3.473,9.008s5.564,3.3,9.008,3.473c3.549.2,14.188.2,17.737,0,3.444-.163,6.494-.95,9.008-3.473s3.3-5.564,3.473-9.008c.2-3.549.2-14.178,0-17.728ZM38.258,36.405a7.255,7.255,0,0,1-4.087,4.087c-2.83,1.122-9.545.863-12.672.863s-9.852.249-12.672-.863a7.255,7.255,0,0,1-4.087-4.087c-1.122-2.83-.863-9.545-.863-12.672s-.249-9.852.863-12.672A7.255,7.255,0,0,1,8.827,6.974c2.83-1.122,9.545-.863,12.672-.863s9.852-.249,12.672.863a7.255,7.255,0,0,1,4.087,4.087c1.122,2.83.863,9.545.863,12.672S39.381,33.585,38.258,36.405Z" transform="translate(546.005 7051.762)" fill="#fff"/><g transform="translate(527 7035)" fill="none" stroke="#fff" stroke-width="3"><circle cx="40" cy="40" r="40" stroke="none"/><circle cx="40" cy="40" r="38.5" fill="none"/></g></g></g></svg>