<svg xmlns="http://www.w3.org/2000/svg" width="80" height="80" viewBox="0 0 80 80"><g transform="translate(-954 -5662)"><g transform="translate(147 -1373)"><path d="M9.625,43H.71V14.291H9.625ZM5.163,10.375a5.187,5.187,0,1,1,5.163-5.212A5.206,5.206,0,0,1,5.163,10.375ZM42.99,43h-8.9V29.025c0-3.331-.067-7.6-4.635-7.6-4.635,0-5.345,3.619-5.345,7.362V43H15.209V14.291h8.55v3.916h.125a9.367,9.367,0,0,1,8.435-4.636C41.341,13.572,43,19.513,43,27.23V43Z" transform="translate(827 7052)" fill="#fff"/><g transform="translate(807 7035)" fill="none" stroke="#fff" stroke-width="3"><circle cx="40" cy="40" r="40" stroke="none"/><circle cx="40" cy="40" r="38.5" fill="none"/></g></g></g></svg>