<svg xmlns="http://www.w3.org/2000/svg" xmlns:xlink="http://www.w3.org/1999/xlink" width="215.906" height="209.448" viewBox="0 0 215.906 209.448"><defs><linearGradient id="a" x1="0.5" x2="0.5" y2="1" gradientUnits="objectBoundingBox"><stop offset="0" stop-color="#49ccf9"/><stop offset="1" stop-color="#8930fd"/></linearGradient></defs><g transform="translate(-1269.867 -1437.4)"><g transform="translate(1312.244 1463.665) rotate(17)" fill="none"><path d="M73.291,2.134a5,5,0,0,1,5.876,0l70.35,51.094a5,5,0,0,1,1.817,5.591l-26.871,82.669a5,5,0,0,1-4.755,3.454H32.749a5,5,0,0,1-4.755-3.454L1.123,58.819A5,5,0,0,1,2.94,53.228Z" stroke="none"/><path d="M 76.22877502441406 2.179534912109375 C 75.37877655029297 2.179534912109375 74.56597137451172 2.443557739257812 73.87821197509766 2.94305419921875 L 3.527816772460938 54.03668212890625 C 2.12091064453125 55.05847930908203 1.536788940429688 56.85601806640625 2.074295043945312 58.5096435546875 L 28.94501495361328 141.1785278320312 C 29.48229217529297 142.8314819335938 31.01103210449219 143.9420623779297 32.74909210205078 143.9420471191406 L 119.70849609375 143.9420471191406 C 121.446533203125 143.9420471191406 122.9752731323242 142.8314666748047 123.5125579833984 141.1785278320312 L 150.3832550048828 58.5096435546875 C 150.9207611083984 56.85600280761719 150.3366394042969 55.05846405029297 148.9297332763672 54.03668212890625 L 78.57935333251953 2.94305419921875 C 77.89157867431641 2.443557739257812 77.07875823974609 2.179534912109375 76.22877502441406 2.179534912109375 M 76.22877502441406 1.179550170898438 C 77.25984954833984 1.179550170898438 78.29092407226562 1.4976806640625 79.1669921875 2.133941650390625 L 149.5173797607422 53.22756195068359 C 151.2704772949219 54.50077819824219 152.0040283203125 56.75822448730469 151.3342742919922 58.81876373291016 L 124.4635772705078 141.4876403808594 C 123.794075012207 143.5473785400391 121.8742828369141 144.9420471191406 119.70849609375 144.9420471191406 C 119.7083740234375 144.9420471191406 119.7085876464844 144.9420471191406 119.7084503173828 144.9420471191406 L 32.74909210205078 144.9420471191406 C 30.58317565917969 144.9420623779297 28.66353607177734 143.5475006103516 27.99399566650391 141.4876403808594 L 1.123275756835938 58.81876373291016 C 0.453521728515625 56.75823974609375 1.187088012695312 54.50077819824219 2.940170288085938 53.22756195068359 L 73.29057312011719 2.133941650390625 C 74.16663360595703 1.4976806640625 75.19770812988281 1.179550170898438 76.22877502441406 1.179550170898438 Z" stroke="none" fill="#6968f6"/></g><path d="M83.068,2.123a5,5,0,0,1,5.864,0l80.117,58a5,5,0,0,1,1.822,5.6L140.276,159.55a5,5,0,0,1-4.754,3.45H36.478a5,5,0,0,1-4.754-3.45L1.129,65.724a5,5,0,0,1,1.822-5.6Z" transform="translate(1321.288 1437.4) rotate(17)" fill="url(#a)"/></g></svg>