<svg xmlns="http://www.w3.org/2000/svg" xmlns:xlink="http://www.w3.org/1999/xlink" width="105.908" height="114.335" viewBox="0 0 105.908 114.335"><defs><linearGradient id="a" x1="0.5" x2="0.5" y2="1" gradientUnits="objectBoundingBox"><stop offset="0" stop-color="#008ce4"/><stop offset="1" stop-color="#53cdfa"/></linearGradient></defs><g transform="translate(-358.372 -673.349)"><g transform="translate(361.413 680.951)"><path d="M17.8,18.956C17.471,18.481,0,1.759,0,1.759S2.78-.383,3.519.06s9.9,2.4,9.9,2.4l9.437,8.9,4.565,5.666-3.314,1.244Z" transform="matrix(0.174, 0.985, -0.985, 0.174, 68.937, 60.564)" fill="#edfaff"/><path d="M9.623,18.956c.326-.475,17.8-17.2,17.8-17.2S24.64-.383,23.9.06s-9.9,2.4-9.9,2.4l-9.437,8.9L0,17.029l3.314,1.244Z" transform="matrix(0.985, -0.174, 0.174, 0.985, 9.273, 42.711)" fill="#edfaff"/><path d="M86.407.324C87.889.5,88.354.906,88.5,2.35c1.455,14.47-2.6,27.212-12.312,38.016-4.012,4.461-8.436,8.552-12.644,12.839a2.789,2.789,0,0,0-.749,1.459q-1.043,7.607-1.979,15.228a4.21,4.21,0,0,1-1.244,2.645c-5.137,5.085-10.232,10.211-15.348,15.317a4.164,4.164,0,0,1-.989.8,1.768,1.768,0,0,1-2.539-1.5c-.62-3.292-1.365-6.57-1.781-9.888a6.733,6.733,0,0,0-2.949-4.63c-.847,1.557-1.684,3.107-2.53,4.653-.907,1.657-2.084,1.84-3.417.509Q20.5,68.292,11,58.776c-1.291-1.292-1.106-2.47.512-3.357,1.546-.848,3.1-1.687,4.765-2.594-1.3-1.166-2.173-2.542-4.135-2.8C8.672,49.579,5.25,48.783,1.8,48.156a1.9,1.9,0,0,1-1.723-1.28,1.971,1.971,0,0,1,.67-2.053C6.041,39.547,11.312,34.252,16.623,29a3.133,3.133,0,0,1,1.654-.831c5.311-.738,10.633-1.4,15.947-2.124a2.5,2.5,0,0,0,1.317-.659c4.24-4.169,8.345-8.482,12.695-12.532A47.176,47.176,0,0,1,75.319.356Q76.761.18,78.2,0S85.563.225,86.407.324Zm-69.085,48.2L40.246,71.447c.045-.041.181-.161.309-.289q15.75-15.748,31.5-31.5a44.311,44.311,0,0,0,8.547-11.9c.754-1.543,1.4-3.142,2.1-4.739C73.611,20.749,68.063,15.145,65.827,6.2c-.3.115-.559.209-.812.305A45.571,45.571,0,0,0,48.86,17.1Q33.417,32.569,17.944,48.012A7.152,7.152,0,0,1,17.322,48.524ZM83.65,19.5a2.109,2.109,0,0,0,.178-.36A47.62,47.62,0,0,0,85.161,4.365c-.044-.7-.424-.7-.9-.686-3.253.12-6.512.156-9.755.4a45.8,45.8,0,0,0-5.151.961A17.513,17.513,0,0,0,83.65,19.5ZM58.721,58.257l-.278-.166a7.751,7.751,0,0,1-.611.788c-4.632,4.642-9.207,9.345-13.946,13.875-1.464,1.4-2.162,2.7-1.4,4.63a6.947,6.947,0,0,1,.23,1.256c.291,1.541.585,3.081.9,4.756.361-.338.607-.557.839-.789,3.862-3.859,7.705-7.738,11.6-11.567a4.216,4.216,0,0,0,1.4-2.728C57.807,64.952,58.29,61.607,58.721,58.257ZM5.492,45.159a4.614,4.614,0,0,0,.579.2c2.4.444,4.8.851,7.184,1.339a1.451,1.451,0,0,0,1.5-.486q7.609-7.657,15.255-15.278c.2-.2.387-.43.724-.806-.62.062-1.033.093-1.443.146-3.112.4-6.228.779-9.332,1.232a2.976,2.976,0,0,0-1.568.745c-4.105,4.045-8.171,8.13-12.245,12.206C5.939,44.665,5.742,44.89,5.492,45.159Zm27.831,24.9L18.761,55.514,15.109,57.5,31.342,73.711Z" transform="matrix(0.985, -0.174, 0.174, 0.985, 0, 15.418)" fill="#edfaff"/><g transform="matrix(0.985, -0.174, 0.174, 0.985, 6.902, 80.501)"><path d="M2.061,18.683C.393,18.647-.42,17.261.217,16.121a4.046,4.046,0,0,1,.691-.843Q8.077,8.094,15.254.918a2.2,2.2,0,0,1,1.9-.9A1.724,1.724,0,0,1,18.4,2.647a4.2,4.2,0,0,1-.64.768Q10.588,10.6,3.4,17.761A7.53,7.53,0,0,1,2.061,18.683Z" transform="translate(4.851 4.853)" fill="#edfaff"/><path d="M1.987,10.376A1.79,1.79,0,0,1,.166,7.9,2.8,2.8,0,0,1,.7,7.168Q3.923,3.927,7.16.7A1.628,1.628,0,0,1,9.124.161a2.531,2.531,0,0,1,1.122,1.377A1.821,1.821,0,0,1,9.8,3.007C7.581,5.312,5.31,7.565,3.025,9.8A3.717,3.717,0,0,1,1.987,10.376Z" transform="translate(0 8.335)" fill="#edfaff"/><path d="M1.824,10.444A1.888,1.888,0,0,1,.246,7.671,3.334,3.334,0,0,1,.76,7.034C2.867,4.92,4.96,2.792,7.106.719A2.622,2.622,0,0,1,8.6,0a1.678,1.678,0,0,1,1.512,2.5,3.6,3.6,0,0,1-.619.783C7.435,5.364,5.379,7.443,3.286,9.483A8.956,8.956,0,0,1,1.824,10.444Z" transform="translate(18.038 9.739)" fill="#edfaff"/><path d="M4.436,1.722A3.359,3.359,0,0,1,1.755,4.447,1.7,1.7,0,0,1,.239,1.922,5.686,5.686,0,0,1,1.889.254,1.692,1.692,0,0,1,4.436,1.722Z" transform="translate(14.235)" fill="#edfaff"/><path d="M4.321,1.769c-.01,1.058-1.6,2.754-2.642,2.639A2.177,2.177,0,0,1,.207,3.552,1.98,1.98,0,0,1,.169,1.871,4.792,4.792,0,0,1,1.742.264,1.7,1.7,0,0,1,4.321,1.769Z" transform="translate(9.784 23.947)" fill="#edfaff"/><path d="M1.707,3.49A1.707,1.707,0,0,1,0,1.744,1.757,1.757,0,0,1,1.727,0,1.787,1.787,0,0,1,3.5,1.809,1.75,1.75,0,0,1,1.707,3.49Z" transform="translate(14.388 20.181)" fill="#edfaff"/><path d="M1.792,3.494A1.778,1.778,0,0,1,0,1.8,1.72,1.72,0,0,1,1.659,0,1.721,1.721,0,0,1,3.493,1.716,1.77,1.77,0,0,1,1.792,3.494Z" transform="translate(10.49 4.724)" fill="#edfaff"/></g><path d="M14.752,7.587a7.376,7.376,0,1,1-7.2-7.58A7.4,7.4,0,0,1,14.752,7.587Z" transform="matrix(0.985, -0.174, 0.174, 0.985, 55.807, 27.284)" fill="#edfaff"/></g><g transform="matrix(0.985, -0.174, 0.174, 0.985, 353.936, 689.549)"><path d="M17.8,18.956C17.471,18.481,0,1.759,0,1.759S2.78-.383,3.519.06s9.9,2.4,9.9,2.4l9.437,8.9,4.565,5.666-3.314,1.244Z" transform="translate(64.555 56.431) rotate(90)" fill="url(#a)"/><path d="M9.623,18.956c.326-.475,17.8-17.2,17.8-17.2S24.64-.383,23.9.06s-9.9,2.4-9.9,2.4l-9.437,8.9L0,17.029l3.314,1.244Z" transform="translate(8.897 28.489)" fill="url(#a)"/><path d="M86.407.324C87.889.5,88.354.906,88.5,2.35c1.455,14.47-2.6,27.212-12.312,38.016-4.012,4.461-8.436,8.552-12.644,12.839a2.789,2.789,0,0,0-.749,1.459q-1.043,7.607-1.979,15.228a4.21,4.21,0,0,1-1.244,2.645c-5.137,5.085-10.232,10.211-15.348,15.317a4.164,4.164,0,0,1-.989.8,1.768,1.768,0,0,1-2.539-1.5c-.62-3.292-1.365-6.57-1.781-9.888a6.733,6.733,0,0,0-2.949-4.63c-.847,1.557-1.684,3.107-2.53,4.653-.907,1.657-2.084,1.84-3.417.509Q20.5,68.292,11,58.776c-1.291-1.292-1.106-2.47.512-3.357,1.546-.848,3.1-1.687,4.765-2.594-1.3-1.166-2.173-2.542-4.135-2.8C8.672,49.579,5.25,48.783,1.8,48.156a1.9,1.9,0,0,1-1.723-1.28,1.971,1.971,0,0,1,.67-2.053C6.041,39.547,11.312,34.252,16.623,29a3.133,3.133,0,0,1,1.654-.831c5.311-.738,10.633-1.4,15.947-2.124a2.5,2.5,0,0,0,1.317-.659c4.24-4.169,8.345-8.482,12.695-12.532A47.176,47.176,0,0,1,75.319.356Q76.761.18,78.2,0S85.563.225,86.407.324Zm-69.085,48.2L40.246,71.447c.045-.041.181-.161.309-.289q15.75-15.748,31.5-31.5a44.311,44.311,0,0,0,8.547-11.9c.754-1.543,1.4-3.142,2.1-4.739C73.611,20.749,68.063,15.145,65.827,6.2c-.3.115-.559.209-.812.305A45.571,45.571,0,0,0,48.86,17.1Q33.417,32.569,17.944,48.012A7.152,7.152,0,0,1,17.322,48.524ZM83.65,19.5a2.109,2.109,0,0,0,.178-.36A47.62,47.62,0,0,0,85.161,4.365c-.044-.7-.424-.7-.9-.686-3.253.12-6.512.156-9.755.4a45.8,45.8,0,0,0-5.151.961A17.513,17.513,0,0,0,83.65,19.5ZM58.721,58.257l-.278-.166a7.751,7.751,0,0,1-.611.788c-4.632,4.642-9.207,9.345-13.946,13.875-1.464,1.4-2.162,2.7-1.4,4.63a6.947,6.947,0,0,1,.23,1.256c.291,1.541.585,3.081.9,4.756.361-.338.607-.557.839-.789,3.862-3.859,7.705-7.738,11.6-11.567a4.216,4.216,0,0,0,1.4-2.728C57.807,64.952,58.29,61.607,58.721,58.257ZM5.492,45.159a4.614,4.614,0,0,0,.579.2c2.4.444,4.8.851,7.184,1.339a1.451,1.451,0,0,0,1.5-.486q7.609-7.657,15.255-15.278c.2-.2.387-.43.724-.806-.62.062-1.033.093-1.443.146-3.112.4-6.228.779-9.332,1.232a2.976,2.976,0,0,0-1.568.745c-4.105,4.045-8.171,8.13-12.245,12.206C5.939,44.665,5.742,44.89,5.492,45.159Zm27.831,24.9L18.761,55.514,15.109,57.5,31.342,73.711Z" transform="translate(4.505)" fill="#433d6b"/><g transform="translate(0 65.293)"><path d="M2.061,18.683C.393,18.647-.42,17.261.217,16.121a4.046,4.046,0,0,1,.691-.843Q8.077,8.094,15.254.918a2.2,2.2,0,0,1,1.9-.9A1.724,1.724,0,0,1,18.4,2.647a4.2,4.2,0,0,1-.64.768Q10.588,10.6,3.4,17.761A7.53,7.53,0,0,1,2.061,18.683Z" transform="translate(4.851 4.853)" fill="url(#a)"/><path d="M1.987,10.376A1.79,1.79,0,0,1,.166,7.9,2.8,2.8,0,0,1,.7,7.168Q3.923,3.927,7.16.7A1.628,1.628,0,0,1,9.124.161a2.531,2.531,0,0,1,1.122,1.377A1.821,1.821,0,0,1,9.8,3.007C7.581,5.312,5.31,7.565,3.025,9.8A3.717,3.717,0,0,1,1.987,10.376Z" transform="translate(0 8.335)" fill="url(#a)"/><path d="M1.824,10.444A1.888,1.888,0,0,1,.246,7.671,3.334,3.334,0,0,1,.76,7.034C2.867,4.92,4.96,2.792,7.106.719A2.622,2.622,0,0,1,8.6,0a1.678,1.678,0,0,1,1.512,2.5,3.6,3.6,0,0,1-.619.783C7.435,5.364,5.379,7.443,3.286,9.483A8.956,8.956,0,0,1,1.824,10.444Z" transform="translate(18.038 9.739)" fill="url(#a)"/><path d="M4.436,1.722A3.359,3.359,0,0,1,1.755,4.447,1.7,1.7,0,0,1,.239,1.922,5.686,5.686,0,0,1,1.889.254,1.692,1.692,0,0,1,4.436,1.722Z" transform="translate(14.235)" fill="url(#a)"/><path d="M4.321,1.769c-.01,1.058-1.6,2.754-2.642,2.639A2.177,2.177,0,0,1,.207,3.552,1.98,1.98,0,0,1,.169,1.871,4.792,4.792,0,0,1,1.742.264,1.7,1.7,0,0,1,4.321,1.769Z" transform="translate(9.784 23.947)" fill="url(#a)"/><path d="M1.707,3.49A1.707,1.707,0,0,1,0,1.744,1.757,1.757,0,0,1,1.727,0,1.787,1.787,0,0,1,3.5,1.809,1.75,1.75,0,0,1,1.707,3.49Z" transform="translate(14.388 20.181)" fill="url(#a)"/><path d="M1.792,3.494A1.778,1.778,0,0,1,0,1.8,1.72,1.72,0,0,1,1.659,0,1.721,1.721,0,0,1,3.493,1.716,1.77,1.77,0,0,1,1.792,3.494Z" transform="translate(10.49 4.724)" fill="url(#a)"/></g><path d="M14.752,7.587a7.376,7.376,0,1,1-7.2-7.58A7.4,7.4,0,0,1,14.752,7.587Z" transform="translate(57.403 21.377)" stroke="#433d6b" stroke-width="3" fill="url(#a)"/></g></g></svg>