<svg xmlns="http://www.w3.org/2000/svg" width="80" height="80" viewBox="0 0 80 80"><g transform="translate(-834 -5662)"><g transform="translate(167 -1373)"><path d="M40.374,12.489c.029.4.029.8.029,1.2,0,12.192-9.28,26.24-26.241,26.24A26.063,26.063,0,0,1,0,35.789a19.079,19.079,0,0,0,2.227.114,18.47,18.47,0,0,0,11.45-3.94,9.239,9.239,0,0,1-8.623-6.4,11.631,11.631,0,0,0,1.742.143A9.754,9.754,0,0,0,9.223,25.4a9.224,9.224,0,0,1-7.4-9.051V16.23A9.288,9.288,0,0,0,6,17.4,9.236,9.236,0,0,1,3.141,5.065a26.215,26.215,0,0,0,19.017,9.651,10.411,10.411,0,0,1-.228-2.113A9.232,9.232,0,0,1,37.89,6.293a18.158,18.158,0,0,0,5.853-2.227,9.2,9.2,0,0,1-4.055,5.082A18.489,18.489,0,0,0,45,7.721a19.826,19.826,0,0,1-4.626,4.768Z" transform="translate(685 7053.619)" fill="#fff"/><g transform="translate(667 7035)" fill="none" stroke="#fff" stroke-width="3"><circle cx="40" cy="40" r="40" stroke="none"/><circle cx="40" cy="40" r="38.5" fill="none"/></g></g></g></svg>