<svg xmlns="http://www.w3.org/2000/svg" xmlns:xlink="http://www.w3.org/1999/xlink" width="74" height="60.391" viewBox="0 0 74 60.391"><defs><linearGradient id="a" x1="0.5" x2="0.5" y2="1" gradientUnits="objectBoundingBox"><stop offset="0" stop-color="#49ccf9"/><stop offset="1" stop-color="#8930fd"/></linearGradient></defs><path d="M2.011,0H71.989A2,2,0,0,1,74,1.979V47.613a2,2,0,0,1-2.011,1.979H2.011A2,2,0,0,1,0,47.6V1.968A2,2,0,0,1,2.011,0ZM8.124,37.876a1.567,1.567,0,0,1-1.431-.737,1.514,1.514,0,0,1,0-1.59,1.567,1.567,0,0,1,1.431-.737H31.881a1.567,1.567,0,0,1,1.431.737,1.514,1.514,0,0,1,0,1.59,1.567,1.567,0,0,1-1.431.737Zm.09-7.87a1.534,1.534,0,0,1,0-3.064h17.32a1.534,1.534,0,0,1,0,3.064Zm-.09-7.841a1.567,1.567,0,0,1-1.431-.737,1.514,1.514,0,0,1,0-1.59A1.567,1.567,0,0,1,8.124,19.1H20.385a1.534,1.534,0,0,1,0,3.064Zm0-7.858a1.567,1.567,0,0,1-1.431-.737,1.514,1.514,0,0,1,0-1.59,1.567,1.567,0,0,1,1.431-.737h7.112a1.534,1.534,0,0,1,0,3.064ZM66.539,29.828v3.817l-7.967,4.445V33.645l5.131-1.92-5.131-1.9V25.383l7.967,4.445Zm-13.8,9.482H49.382L53.6,23.244h3.39L52.772,39.31Zm-5.667-9.482-5.137,1.9,5.137,1.92v4.445l-7.925-4.445V29.828l7.973-4.445v4.445ZM50.484,6.9V9.079a1.093,1.093,0,0,1-1.1,1.085H47.575a8.487,8.487,0,0,1-.964,2.074l1.2,1.185a1.072,1.072,0,0,1,0,1.529l-1.632,1.606a1.115,1.115,0,0,1-1.554,0l-1.313-1.292a8.778,8.778,0,0,1-2.168.8v1.671a1.1,1.1,0,0,1-1.1,1.085H37.717a1.1,1.1,0,0,1-1.1-1.085V15.913a8.618,8.618,0,0,1-2.108-.942l-1.2,1.185a1.109,1.109,0,0,1-1.56,0l-1.632-1.606a1.078,1.078,0,0,1,0-1.511l1.313-1.286a8.508,8.508,0,0,1-.813-2.139h-1.7a1.093,1.093,0,0,1-1.1-1.085v-1.6H1.861V41.983a1.792,1.792,0,0,0,1.807,1.778h66.7a1.792,1.792,0,0,0,1.807-1.778V6.9Zm-6.877,0H34.7a4.5,4.5,0,0,0-.066.759,4.535,4.535,0,0,0,9.033,0,4.5,4.5,0,0,0-.06-.759ZM68.773,2.916a1.185,1.185,0,1,1-1.2,1.185A1.195,1.195,0,0,1,68.773,2.916Zm-8.094,0a1.185,1.185,0,1,1-1.2,1.185A1.195,1.195,0,0,1,60.679,2.916Zm4.047,0a1.185,1.185,0,1,1-1.2,1.185A1.195,1.195,0,0,1,64.726,2.916Zm-36.849,49.4H46.124c.048,3.105,1.349,5.891,4.872,8.078H23C25.841,58.37,27.889,55.922,27.876,52.313Z" fill-rule="evenodd" fill="url(#a)"/></svg>